<mxfile host="app.diagrams.net" modified="2023-01-27T16:45:52.335Z" agent="5.0 (Windows NT 10.0; Win64; x64) AppleWebKit/537.36 (KHTML, like Gecko) Chrome/109.0.0.0 Safari/537.36" etag="tW5hfKq_zU-NiIf_RwU0" version="20.8.13" type="github">
  <diagram name="Page-1" id="XdEbV97L5HPVBMOykjif">
    <mxGraphModel dx="2607" dy="1389" grid="1" gridSize="10" guides="1" tooltips="1" connect="1" arrows="1" fold="1" page="1" pageScale="1" pageWidth="1200" pageHeight="1300" math="0" shadow="0">
      <root>
        <mxCell id="0" />
        <mxCell id="1" parent="0" />
        <mxCell id="F2VnajpDGh1ApNQfDfL5-1" value="rt" style="strokeWidth=1;shadow=0;dashed=0;align=center;html=1;shape=mxgraph.mockup.containers.browserWindow;rSize=0;strokeColor=#666666;strokeColor2=#008cff;strokeColor3=#c4c4c4;mainText=,;recursiveResize=0;" vertex="1" parent="1">
          <mxGeometry x="53.75" y="240" width="1090" height="970" as="geometry" />
        </mxCell>
        <mxCell id="F2VnajpDGh1ApNQfDfL5-3" value="Spotify Clone" style="strokeWidth=1;shadow=0;dashed=0;align=center;html=1;shape=mxgraph.mockup.containers.anchor;fontSize=17;fontColor=#666666;align=left;" vertex="1" parent="F2VnajpDGh1ApNQfDfL5-1">
          <mxGeometry x="60" y="12" width="110" height="26" as="geometry" />
        </mxCell>
        <mxCell id="F2VnajpDGh1ApNQfDfL5-4" value="https://localhost:4000/playlists/:id" style="strokeWidth=1;shadow=0;dashed=0;align=center;html=1;shape=mxgraph.mockup.containers.anchor;rSize=0;fontSize=17;fontColor=#666666;align=left;" vertex="1" parent="F2VnajpDGh1ApNQfDfL5-1">
          <mxGeometry x="130" y="60" width="250" height="26" as="geometry" />
        </mxCell>
        <mxCell id="F2VnajpDGh1ApNQfDfL5-5" value="" style="rounded=0;whiteSpace=wrap;html=1;rotation=90;" vertex="1" parent="F2VnajpDGh1ApNQfDfL5-1">
          <mxGeometry x="-332.96" y="442.97" width="845.93" height="180" as="geometry" />
        </mxCell>
        <mxCell id="F2VnajpDGh1ApNQfDfL5-6" value="&lt;font style=&quot;font-size: 21px;&quot;&gt;LINKS&lt;/font&gt;" style="text;html=1;strokeColor=none;fillColor=none;align=center;verticalAlign=middle;whiteSpace=wrap;rounded=0;" vertex="1" parent="F2VnajpDGh1ApNQfDfL5-1">
          <mxGeometry x="20" y="130" width="120" height="110" as="geometry" />
        </mxCell>
        <mxCell id="F2VnajpDGh1ApNQfDfL5-7" value="&lt;font style=&quot;font-size: 21px;&quot;&gt;Local&lt;br&gt;Playlists&lt;br&gt;&lt;/font&gt;" style="text;html=1;strokeColor=none;fillColor=none;align=center;verticalAlign=middle;whiteSpace=wrap;rounded=0;" vertex="1" parent="F2VnajpDGh1ApNQfDfL5-1">
          <mxGeometry x="20" y="270" width="120" height="110" as="geometry" />
        </mxCell>
        <mxCell id="F2VnajpDGh1ApNQfDfL5-8" value="" style="rounded=1;whiteSpace=wrap;html=1;fontSize=21;" vertex="1" parent="F2VnajpDGh1ApNQfDfL5-1">
          <mxGeometry x="200" y="130" width="580" height="60" as="geometry" />
        </mxCell>
        <mxCell id="F2VnajpDGh1ApNQfDfL5-9" value="Main Search Bar" style="text;html=1;strokeColor=none;fillColor=none;align=center;verticalAlign=middle;whiteSpace=wrap;rounded=0;fontSize=21;" vertex="1" parent="F2VnajpDGh1ApNQfDfL5-1">
          <mxGeometry x="210" y="145" width="530" height="30" as="geometry" />
        </mxCell>
        <mxCell id="F2VnajpDGh1ApNQfDfL5-10" value="" style="rounded=0;whiteSpace=wrap;html=1;fontSize=21;" vertex="1" parent="F2VnajpDGh1ApNQfDfL5-1">
          <mxGeometry x="950" y="130" width="120" height="90" as="geometry" />
        </mxCell>
        <mxCell id="F2VnajpDGh1ApNQfDfL5-11" value="Logged in user menu" style="text;html=1;strokeColor=none;fillColor=none;align=center;verticalAlign=middle;whiteSpace=wrap;rounded=0;fontSize=21;" vertex="1" parent="F2VnajpDGh1ApNQfDfL5-1">
          <mxGeometry x="980" y="160" width="60" height="30" as="geometry" />
        </mxCell>
        <mxCell id="F2VnajpDGh1ApNQfDfL5-12" value="" style="rounded=0;whiteSpace=wrap;html=1;" vertex="1" parent="F2VnajpDGh1ApNQfDfL5-1">
          <mxGeometry x="220" y="283.75" width="270" height="236.25" as="geometry" />
        </mxCell>
        <mxCell id="F2VnajpDGh1ApNQfDfL5-13" value="localuser picture" style="text;html=1;strokeColor=none;fillColor=none;align=center;verticalAlign=middle;whiteSpace=wrap;rounded=0;fontSize=21;" vertex="1" parent="F2VnajpDGh1ApNQfDfL5-1">
          <mxGeometry x="90" y="370" width="530" height="30" as="geometry" />
        </mxCell>
        <mxCell id="F2VnajpDGh1ApNQfDfL5-14" value="local user info" style="text;html=1;strokeColor=none;fillColor=none;align=center;verticalAlign=middle;whiteSpace=wrap;rounded=0;fontSize=21;" vertex="1" parent="F2VnajpDGh1ApNQfDfL5-1">
          <mxGeometry x="396.25" y="310" width="530" height="30" as="geometry" />
        </mxCell>
        <mxCell id="F2VnajpDGh1ApNQfDfL5-31" value="" style="shape=singleArrow;direction=south;whiteSpace=wrap;html=1;rotation=21;" vertex="1" parent="F2VnajpDGh1ApNQfDfL5-1">
          <mxGeometry x="684.63" y="-51.03" width="40" height="360" as="geometry" />
        </mxCell>
        <mxCell id="F2VnajpDGh1ApNQfDfL5-42" value="" style="rounded=0;whiteSpace=wrap;html=1;" vertex="1" parent="F2VnajpDGh1ApNQfDfL5-1">
          <mxGeometry x="220" y="665.94" width="270" height="236.25" as="geometry" />
        </mxCell>
        <mxCell id="F2VnajpDGh1ApNQfDfL5-43" value="spotify user picture" style="text;html=1;strokeColor=none;fillColor=none;align=center;verticalAlign=middle;whiteSpace=wrap;rounded=0;fontSize=21;" vertex="1" parent="F2VnajpDGh1ApNQfDfL5-1">
          <mxGeometry x="245" y="740.94" width="220" height="30" as="geometry" />
        </mxCell>
        <mxCell id="F2VnajpDGh1ApNQfDfL5-44" value="" style="whiteSpace=wrap;html=1;aspect=fixed;" vertex="1" parent="F2VnajpDGh1ApNQfDfL5-1">
          <mxGeometry x="536.25" y="665.94" width="220" height="220" as="geometry" />
        </mxCell>
        <mxCell id="F2VnajpDGh1ApNQfDfL5-45" value="spotify information" style="text;html=1;strokeColor=none;fillColor=none;align=center;verticalAlign=middle;whiteSpace=wrap;rounded=0;fontSize=21;" vertex="1" parent="F2VnajpDGh1ApNQfDfL5-1">
          <mxGeometry x="536.25" y="680" width="220" height="30" as="geometry" />
        </mxCell>
        <mxCell id="F2VnajpDGh1ApNQfDfL5-32" value="&lt;font style=&quot;font-size: 21px;&quot;&gt;Displays the local users picture and some of their information. It also displays the spotify users information, including how much time is left on the token.&lt;/font&gt;" style="text;html=1;strokeColor=none;fillColor=none;align=center;verticalAlign=middle;whiteSpace=wrap;rounded=0;" vertex="1" parent="1">
          <mxGeometry x="50" y="70" width="590" height="100" as="geometry" />
        </mxCell>
        <mxCell id="F2VnajpDGh1ApNQfDfL5-33" value="" style="group" vertex="1" connectable="0" parent="1">
          <mxGeometry x="700" y="40" width="460" height="181" as="geometry" />
        </mxCell>
        <mxCell id="F2VnajpDGh1ApNQfDfL5-34" value="" style="rounded=0;whiteSpace=wrap;html=1;" vertex="1" parent="F2VnajpDGh1ApNQfDfL5-33">
          <mxGeometry width="460" height="181" as="geometry" />
        </mxCell>
        <mxCell id="F2VnajpDGh1ApNQfDfL5-35" value="Name" style="strokeWidth=1;shadow=0;dashed=0;align=center;html=1;shape=mxgraph.mockup.forms.anchor;align=right;spacingRight=2;fontColor=#666666;" vertex="1" parent="F2VnajpDGh1ApNQfDfL5-33">
          <mxGeometry x="40" y="21" width="50" height="18" as="geometry" />
        </mxCell>
        <mxCell id="F2VnajpDGh1ApNQfDfL5-36" value="name" style="strokeWidth=1;shadow=0;dashed=0;align=center;html=1;shape=mxgraph.mockup.forms.rrect;fillColor=#ffffff;rSize=0;fontColor=#666666;align=left;spacingLeft=3;strokeColor=#999999;" vertex="1" parent="F2VnajpDGh1ApNQfDfL5-33">
          <mxGeometry x="90" y="21" width="350" height="18" as="geometry" />
        </mxCell>
        <mxCell id="F2VnajpDGh1ApNQfDfL5-37" value="birthdate" style="strokeWidth=1;shadow=0;dashed=0;align=center;html=1;shape=mxgraph.mockup.forms.anchor;align=right;spacingRight=2;fontColor=#666666;" vertex="1" parent="F2VnajpDGh1ApNQfDfL5-33">
          <mxGeometry x="40" y="56" width="50" height="18" as="geometry" />
        </mxCell>
        <mxCell id="F2VnajpDGh1ApNQfDfL5-38" value="birthdate" style="strokeWidth=1;shadow=0;dashed=0;align=center;html=1;shape=mxgraph.mockup.forms.rrect;fillColor=#ffffff;rSize=0;fontColor=#666666;align=left;spacingLeft=3;strokeColor=#999999;" vertex="1" parent="F2VnajpDGh1ApNQfDfL5-33">
          <mxGeometry x="90" y="56" width="350" height="18" as="geometry" />
        </mxCell>
        <mxCell id="F2VnajpDGh1ApNQfDfL5-39" value="region" style="strokeWidth=1;shadow=0;dashed=0;align=center;html=1;shape=mxgraph.mockup.forms.anchor;align=right;spacingRight=2;fontColor=#666666;" vertex="1" parent="F2VnajpDGh1ApNQfDfL5-33">
          <mxGeometry x="40" y="91" width="50" height="18" as="geometry" />
        </mxCell>
        <mxCell id="F2VnajpDGh1ApNQfDfL5-40" value="region" style="strokeWidth=1;shadow=0;dashed=0;align=center;html=1;shape=mxgraph.mockup.forms.rrect;fillColor=#ffffff;rSize=0;fontColor=#666666;align=left;spacingLeft=3;strokeColor=#999999;" vertex="1" parent="F2VnajpDGh1ApNQfDfL5-33">
          <mxGeometry x="90" y="91" width="350" height="18" as="geometry" />
        </mxCell>
        <mxCell id="F2VnajpDGh1ApNQfDfL5-41" value="update profile" style="strokeWidth=1;shadow=0;dashed=0;align=center;html=1;shape=mxgraph.mockup.buttons.button;strokeColor=#666666;fontColor=#ffffff;mainText=;buttonStyle=round;fontSize=17;fontStyle=1;fillColor=#008cff;whiteSpace=wrap;" vertex="1" parent="F2VnajpDGh1ApNQfDfL5-33">
          <mxGeometry x="300" y="131" width="130" height="40" as="geometry" />
        </mxCell>
      </root>
    </mxGraphModel>
  </diagram>
</mxfile>
